<svg height="423pt" viewBox="0 -50 423.25333 423" width="423pt" xmlns="http://www.w3.org/2000/svg"><g fill="#0e65e5"><path d="m412.207031 288.222656h-259.839843c-3.769532 0-6.828126-3.058594-6.828126-6.828125s3.058594-6.824219 6.828126-6.824219h259.839843c3.769531 0 6.824219 3.054688 6.824219 6.824219s-3.054688 6.828125-6.824219 6.828125zm0 0"/><path d="m108.160156 288.222656c-3.75 0-6.804687-3.027344-6.828125-6.785156-.023437-3.769531 3.015625-6.847656 6.785157-6.867188l7.894531-.050781c3.695312-.1875 6.847656 3.015625 6.867187 6.785157.023438 3.769531-3.011718 6.847656-6.78125 6.867187l-7.894531.050781c-.011719 0-.03125 0-.042969 0zm0 0"/><path d="m76.238281 288.222656h-53.566406c-3.769531 0-6.824219-3.058594-6.824219-6.828125s3.054688-6.824219 6.824219-6.824219h53.566406c3.769531 0 6.824219 3.054688 6.824219 6.824219s-3.054688 6.828125-6.824219 6.828125zm0 0"/><path d="m409.601562 322.304688h-88.75c-3.769531 0-6.824218-3.054688-6.824218-6.824219s3.054687-6.828125 6.824218-6.828125h88.75c3.769532 0 6.824219 3.058594 6.824219 6.828125s-3.054687 6.824219-6.824219 6.824219zm0 0"/><path d="m286.71875 322.304688h-20.480469c-3.769531 0-6.824219-3.054688-6.824219-6.824219s3.054688-6.828125 6.824219-6.828125h20.480469c3.769531 0 6.828125 3.058594 6.828125 6.828125s-3.058594 6.824219-6.828125 6.824219zm0 0"/><path d="m238.933594 322.304688h-13.652344c-3.769531 0-6.828125-3.054688-6.828125-6.824219s3.058594-6.828125 6.828125-6.828125h13.652344c3.769531 0 6.828125 3.058594 6.828125 6.828125s-3.058594 6.824219-6.828125 6.824219zm0 0"/><path d="m6.828125 233.558594h402.773437v13.652344h-402.773437zm0 0"/><path d="m409.601562 254.039062h-402.773437c-3.773437 0-6.828125-3.054687-6.828125-6.828124v-13.652344c0-3.769532 3.054688-6.824219 6.828125-6.824219h402.773437c3.769532 0 6.824219 3.054687 6.824219 6.824219v13.652344c0 3.773437-3.054687 6.828124-6.824219 6.828124zm-395.949218-13.652343h389.121094zm0 0"/><path d="m197.972656 322.304688h-61.4375c-3.773437 0-6.828125-3.054688-6.828125-6.824219s3.054688-6.828125 6.828125-6.828125h61.4375c3.769532 0 6.828125 3.058594 6.828125 6.828125s-3.058593 6.824219-6.828125 6.824219zm0 0"/><path d="m102.398438 322.304688h-61.4375c-3.769532 0-6.828126-3.054688-6.828126-6.824219s3.058594-6.828125 6.828126-6.828125h61.4375c3.773437 0 6.828124 3.058594 6.828124 6.828125s-3.054687 6.824219-6.828124 6.824219zm0 0"/></g><path d="m350.234375 247.210938h-309.855469l-17.703125-47.785157h389.53125zm0 0" fill="#288eea"/><path d="m350.234375 254.039062h-309.855469c-2.855468 0-5.410156-1.777343-6.398437-4.453124l-17.707031-47.785157c-.777344-2.097656-.480469-4.441406.796874-6.273437 1.277344-1.832032 3.371094-2.929688 5.601563-2.929688h389.535156c2.917969 0 5.519531 1.863282 6.460938 4.625.941406 2.765625.023437 5.828125-2.292969 7.609375l-61.972656 47.789063c-1.195313.917968-2.660156 1.417968-4.167969 1.417968zm-305.105469-13.652343h302.777344l44.265625-34.132813h-359.6875zm0 0" fill="#0e65e5"/><path d="m375.464844 206.253906h-40.957032c-3.769531 0-6.828124-3.058594-6.828124-6.828125v-27.304687c0-3.773438 3.058593-6.828125 6.828124-6.828125h40.957032c3.773437 0 6.828125 3.054687 6.828125 6.828125v27.304687c0 3.769531-3.054688 6.828125-6.828125 6.828125zm-34.132813-13.65625h27.308594v-13.652344h-27.308594zm0 0" fill="#0e65e5"/><path d="m75.09375 172.121094h225.28125v27.304687h-225.28125zm0 0" fill="#d7e9ff"/><path d="m300.375 206.253906h-225.28125c-3.769531 0-6.828125-3.058594-6.828125-6.828125v-27.304687c0-3.773438 3.058594-6.828125 6.828125-6.828125h225.28125c3.769531 0 6.824219 3.054687 6.824219 6.828125v27.304687c0 3.769531-3.054688 6.828125-6.824219 6.828125zm-218.453125-13.65625h211.625v-13.652344h-211.625zm0 0" fill="#0e65e5"/><path d="m163.839844 144.8125h109.226562v27.308594h-109.226562zm0 0" fill="#94c1ff"/><path d="m273.066406 178.945312h-109.226562c-3.769532 0-6.828125-3.054687-6.828125-6.824218v-27.308594c0-3.769531 3.058593-6.828125 6.828125-6.828125h109.226562c3.769532 0 6.828125 3.058594 6.828125 6.828125v27.308594c0 3.769531-3.058593 6.824218-6.828125 6.824218zm-102.398437-13.652343h95.570312v-13.652344h-95.570312zm0 0" fill="#0e65e5"/><path d="m184.320312 117.507812h68.53125v27.304688h-68.53125zm0 0" fill="#94c1ff"/><path d="m252.851562 151.640625h-68.53125c-3.769531 0-6.828124-3.058594-6.828124-6.828125v-27.304688c0-3.773437 3.058593-6.828124 6.828124-6.828124h68.53125c3.769532 0 6.828126 3.054687 6.828126 6.828124v27.304688c0 3.769531-3.058594 6.828125-6.828126 6.828125zm-61.703124-13.65625h54.878906v-13.652344h-54.878906zm0 0" fill="#0e65e5"/><path d="m129.707031 151.640625h-61.441406c-3.769531 0-6.824219-3.058594-6.824219-6.828125s3.054688-6.828125 6.824219-6.828125h61.441406c3.769531 0 6.828125 3.058594 6.828125 6.828125s-3.058594 6.828125-6.828125 6.828125zm0 0" fill="#0e65e5"/><path d="m416.425781 178.945312h-81.917969c-3.769531 0-6.828124-3.054687-6.828124-6.824218 0-3.773438 3.058593-6.828125 6.828124-6.828125h81.917969c3.769531 0 6.828125 3.054687 6.828125 6.828125 0 3.769531-3.058594 6.824218-6.828125 6.824218zm0 0" fill="#0e65e5"/><path d="m95.574219 178.945312c-3.769531 0-6.828125-3.054687-6.828125-6.824218v-27.308594c0-3.769531 3.058594-6.828125 6.828125-6.828125s6.824219 3.058594 6.824219 6.828125v27.308594c0 3.769531-3.054688 6.824218-6.824219 6.824218zm0 0" fill="#0e65e5"/><path d="m218.453125 124.332031c-3.742187 0-6.792969-3.015625-6.828125-6.761719l-1.011719-110.554687c-.035156-3.769531 2.992188-6.855469 6.761719-6.890625h.066406c3.742188 0 6.789063 3.019531 6.824219 6.765625l1.015625 110.550781c.03125 3.773438-2.996094 6.859375-6.765625 6.890625-.023437 0-.042969 0-.0625 0zm0 0" fill="#0e65e5"/><path d="m252.585938 56.066406h-68.265626c-3.769531 0-6.828124-3.058594-6.828124-6.828125s3.058593-6.824219 6.828124-6.824219h68.265626c3.769531 0 6.828124 3.054688 6.828124 6.824219s-3.058593 6.828125-6.828124 6.828125zm0 0" fill="#0e65e5"/><path d="m238.933594 83.371094h-40.960938c-3.769531 0-6.824218-3.054688-6.824218-6.824219s3.054687-6.828125 6.824218-6.828125h40.960938c3.769531 0 6.828125 3.058594 6.828125 6.828125s-3.058594 6.824219-6.828125 6.824219zm0 0" fill="#0e65e5"/><path d="m348.160156 247.210938c-3.769531 0-6.828125-3.054688-6.828125-6.824219v-27.308594c0-3.769531 3.058594-6.824219 6.828125-6.824219 3.769532 0 6.828125 3.054688 6.828125 6.824219v27.308594c0 3.769531-3.058593 6.824219-6.828125 6.824219zm0 0" fill="#fff"/><path d="m361.8125 233.558594h-27.304688c-3.769531 0-6.828124-3.054688-6.828124-6.824219 0-3.773437 3.058593-6.828125 6.828124-6.828125h27.304688c3.769531 0 6.828125 3.054688 6.828125 6.828125 0 3.769531-3.058594 6.824219-6.828125 6.824219zm0 0" fill="#fff"/><path d="m88.746094 226.734375h-34.132813c-3.769531 0-6.828125-3.058594-6.828125-6.828125s3.058594-6.828125 6.828125-6.828125h34.132813c3.769531 0 6.828125 3.058594 6.828125 6.828125s-3.058594 6.828125-6.828125 6.828125zm0 0" fill="#fff"/></svg>